Cuprum-Regular.ufo
<glyph name="quotedbl" format="2">
  <advance width="330"/>
  <unicode hex="0022"/>
  <outline>
    <contour>
      <point x="215" y="465" type="line"/>
      <point x="265" y="465" type="line"/>
      <point x="290" y="700" type="line"/>
      <point x="190" y="700" type="line"/>
    </contour>
    <contour>
      <point x="65" y="465" type="line"/>
      <point x="115" y="465" type="line"/>
      <point x="140" y="700" type="line"/>
      <point x="40" y="700" type="line"/>
    </contour>
  </outline>
</glyph>
<glyph name="plus" format="2">
  <advance width="430"/>
  <unicode hex="002B"/>
  <outline>
    <contour>
      <point x="175" y="100" type="line"/>
      <point x="255" y="100" type="line"/>
      <point x="255" y="265" type="line"/>
      <point x="400" y="265" type="line"/>
      <point x="400" y="335" type="line"/>
      <point x="255" y="335" type="line"/>
      <point x="255" y="500" type="line"/>
      <point x="175" y="500" type="line"/>
      <point x="175" y="335" type="line"/>
      <point x="30" y="335" type="line"/>
      <point x="30" y="265" type="line"/>
      <point x="175" y="265" type="line"/>
    </contour>
  </outline>
</glyph>
<glyph name="less" format="2">
  <advance width="400"/>
  <unicode hex="003C"/>
  <outline>
    <contour>
      <point x="360" y="10" type="line"/>
      <point x="360" y="105" type="line"/>
      <point x="130" y="249" type="line"/>
      <point x="130" y="256" type="line"/>
      <point x="360" y="400" type="line"/>
      <point x="360" y="495" type="line"/>
      <point x="40" y="295" type="line"/>
      <point x="40" y="210" type="line"/>
    </contour>
  </outline>
</glyph>
<glyph name="R" format="2">
  <advance width="505"/>
  <unicode hex="0052"/>
  <outline>
    <contour>
      <point x="70" y="0" type="line"/>
      <point x="160" y="0" type="line"/>
      <point x="160" y="230" type="line"/>
      <point x="260" y="230" type="line"/>
      <point x="370" y="0" type="line"/>
      <point x="470" y="0" type="line"/>
      <point x="350" y="250" type="line"/>
      <point x="415" y="275"/>
      <point x="450" y="335"/>
      <point x="450" y="470" type="curve" smooth="yes"/>
      <point x="450" y="650"/>
      <point x="390" y="710"/>
      <point x="230" y="710" type="curve" smooth="yes"/>
      <point x="170" y="710"/>
      <point x="120" y="705"/>
      <point x="70" y="690" type="curve"/>
    </contour>
    <contour>
      <point x="160" y="300" type="line"/>
      <point x="160" y="645" type="line"/>
      <point x="230" y="645" type="line" smooth="yes"/>
      <point x="320" y="645"/>
      <point x="360" y="605"/>
      <point x="360" y="470" type="curve" smooth="yes"/>
      <point x="360" y="340"/>
      <point x="320" y="300"/>
      <point x="230" y="300" type="curve" smooth="yes"/>
    </contour>
  </outline>
</glyph>
<glyph name="asciicircum" format="2">
  <advance width="445"/>
  <unicode hex="005E"/>
  <outline>
    <contour>
      <point x="95" y="410" type="line"/>
      <point x="220" y="610" type="line"/>
      <point x="225" y="610" type="line"/>
      <point x="350" y="410" type="line"/>
      <point x="415" y="450" type="line"/>
      <point x="265" y="700" type="line"/>
      <point x="180" y="700" type="line"/>
      <point x="30" y="450" type="line"/>
    </contour>
  </outline>
</glyph>
<glyph name="b" format="2">
  <advance width="470"/>
  <unicode hex="0062"/>
  <outline>
    <contour>
      <point x="230" y="-10" type="curve" smooth="yes"/>
      <point x="365" y="-10"/>
      <point x="425" y="50"/>
      <point x="425" y="250" type="curve" smooth="yes"/>
      <point x="425" y="450"/>
      <point x="365" y="510"/>
      <point x="260" y="510" type="curve" smooth="yes"/>
      <point x="220" y="510"/>
      <point x="190" y="500"/>
      <point x="160" y="485" type="curve"/>
      <point x="160" y="700" type="line"/>
      <point x="70" y="700" type="line"/>
      <point x="70" y="20" type="line"/>
      <point x="120" y="0"/>
      <point x="170" y="-10"/>
    </contour>
    <contour>
      <point x="160" y="50" type="line"/>
      <point x="160" y="430" type="line"/>
      <point x="175" y="440"/>
      <point x="205" y="450"/>
      <point x="230" y="450" type="curve" smooth="yes"/>
      <point x="295" y="450"/>
      <point x="335" y="410"/>
      <point x="335" y="250" type="curve" smooth="yes"/>
      <point x="335" y="90"/>
      <point x="295" y="50"/>
      <point x="230" y="50" type="curve" smooth="yes"/>
    </contour>
  </outline>
</glyph>
<glyph name="d" format="2">
  <advance width="470"/>
  <unicode hex="0064"/>
  <anchor x="235" y="0" name="bottom"/>
  <anchor x="300" y="609" name="center"/>
  <anchor x="235" y="500" name="top"/>
  <anchor x="450" y="500" name="topright"/>
  <outline>
    <contour>
      <point x="210" y="-10" type="curve" smooth="yes"/>
      <point x="250" y="-10"/>
      <point x="290" y="5"/>
      <point x="315" y="30" type="curve"/>
      <point x="320" y="30" type="line"/>
      <point x="325" y="0" type="line"/>
      <point x="400" y="0" type="line"/>
      <point x="400" y="700" type="line"/>
      <point x="310" y="700" type="line"/>
      <point x="310" y="485" type="line"/>
      <point x="280" y="500"/>
      <point x="250" y="510"/>
      <point x="210" y="510" type="curve" smooth="yes"/>
      <point x="105" y="510"/>
      <point x="45" y="450"/>
      <point x="45" y="250" type="curve" smooth="yes"/>
      <point x="45" y="50"/>
      <point x="105" y="-10"/>
    </contour>
    <contour>
      <point x="240" y="50" type="curve" smooth="yes"/>
      <point x="175" y="50"/>
      <point x="135" y="90"/>
      <point x="135" y="250" type="curve"/>
      <point x="135" y="410"/>
      <point x="175" y="450"/>
      <point x="240" y="450" type="curve" smooth="yes"/>
      <point x="265" y="450"/>
      <point x="295" y="440"/>
      <point x="310" y="430" type="curve"/>
      <point x="310" y="70" type="line"/>
      <point x="295" y="60"/>
      <point x="265" y="50"/>
    </contour>
  </outline>
</glyph>
<glyph name="p" format="2">
  <advance width="465"/>
  <unicode hex="0070"/>
  <outline>
    <contour>
      <point x="65" y="-200" type="line"/>
      <point x="155" y="-200" type="line"/>
      <point x="155" y="15" type="line"/>
      <point x="185" y="0"/>
      <point x="215" y="-10"/>
      <point x="255" y="-10" type="curve" smooth="yes"/>
      <point x="360" y="-10"/>
      <point x="420" y="50"/>
      <point x="420" y="250" type="curve" smooth="yes"/>
      <point x="420" y="450"/>
      <point x="360" y="510"/>
      <point x="255" y="510" type="curve" smooth="yes"/>
      <point x="215" y="510"/>
      <point x="175" y="495"/>
      <point x="150" y="470" type="curve"/>
      <point x="145" y="470" type="line"/>
      <point x="140" y="500" type="line"/>
      <point x="65" y="500" type="line"/>
    </contour>
    <contour>
      <point x="225" y="50" type="curve" smooth="yes"/>
      <point x="200" y="50"/>
      <point x="170" y="60"/>
      <point x="155" y="70" type="curve"/>
      <point x="155" y="430" type="line"/>
      <point x="170" y="440"/>
      <point x="200" y="450"/>
      <point x="225" y="450" type="curve" smooth="yes"/>
      <point x="290" y="450"/>
      <point x="330" y="410"/>
      <point x="330" y="250" type="curve" smooth="yes"/>
      <point x="330" y="90"/>
      <point x="290" y="50"/>
    </contour>
  </outline>
</glyph>
<glyph name="r" format="2">
  <advance width="335"/>
  <unicode hex="0072"/>
  <outline>
    <contour>
      <point x="65" y="0" type="line"/>
      <point x="155" y="0" type="line"/>
      <point x="155" y="405" type="line"/>
      <point x="175" y="420"/>
      <point x="200" y="425"/>
      <point x="225" y="425" type="curve" smooth="yes"/>
      <point x="325" y="425" type="line"/>
      <point x="325" y="500" type="line"/>
      <point x="275" y="500" type="line" smooth="yes"/>
      <point x="215" y="500"/>
      <point x="175" y="480"/>
      <point x="151" y="460" type="curve"/>
      <point x="146" y="460" type="line"/>
      <point x="141" y="500" type="line"/>
      <point x="65" y="500" type="line"/>
    </contour>
  </outline>
</glyph>
<glyph name="v" format="2">
  <advance width="430"/>
  <unicode hex="0076"/>
  <outline>
    <contour>
      <point x="150" y="0" type="line"/>
      <point x="280" y="0" type="line"/>
      <point x="415" y="500" type="line"/>
      <point x="330" y="500" type="line"/>
      <point x="217" y="85" type="line"/>
      <point x="213" y="85" type="line"/>
      <point x="100" y="500" type="line"/>
      <point x="15" y="500" type="line"/>
    </contour>
  </outline>
</glyph>
<glyph name="section" format="2">
  <advance width="435"/>
  <unicode hex="00A7"/>
  <outline>
    <contour>
      <point x="180" y="-210" type="curve"/>
      <point x="335" y="-210"/>
      <point x="395" y="-150"/>
      <point x="395" y="-50" type="curve" smooth="yes"/>
      <point x="395" y="31"/>
      <point x="351" y="71"/>
      <point x="300" y="100" type="curve"/>
      <point x="351" y="126"/>
      <point x="395" y="175"/>
      <point x="395" y="250" type="curve" smooth="yes"/>
      <point x="395" y="450"/>
      <point x="140" y="410"/>
      <point x="140" y="550" type="curve" smooth="yes"/>
      <point x="140" y="610"/>
      <point x="180" y="650"/>
      <point x="265" y="650" type="curve" smooth="yes"/>
      <point x="380" y="650" type="line"/>
      <point x="380" y="690" type="line"/>
      <point x="350" y="700"/>
      <point x="295" y="710"/>
      <point x="245" y="710" type="curve" smooth="yes"/>
      <point x="110" y="710"/>
      <point x="50" y="650"/>
      <point x="50" y="550" type="curve" smooth="yes"/>
      <point x="50" y="471"/>
      <point x="90" y="430"/>
      <point x="138" y="402" type="curve"/>
      <point x="86" y="376"/>
      <point x="40" y="327"/>
      <point x="40" y="250" type="curve" smooth="yes"/>
      <point x="40" y="50"/>
      <point x="305" y="90"/>
      <point x="305" y="-50" type="curve" smooth="yes"/>
      <point x="305" y="-110"/>
      <point x="265" y="-150"/>
      <point x="160" y="-150" type="curve" smooth="yes"/>
      <point x="45" y="-150" type="line"/>
      <point x="45" y="-190" type="line"/>
      <point x="75" y="-200"/>
      <point x="130" y="-210"/>
    </contour>
    <contour>
      <point x="241" y="128" type="curve"/>
      <point x="183" y="156"/>
      <point x="130" y="183"/>
      <point x="130" y="250" type="curve" smooth="yes"/>
      <point x="130" y="317"/>
      <point x="157" y="352"/>
      <point x="195" y="372" type="curve"/>
      <point x="252" y="345"/>
      <point x="305" y="318"/>
      <point x="305" y="250" type="curve" smooth="yes"/>
      <point x="305" y="184"/>
      <point x="278" y="149"/>
    </contour>
  </outline>
</glyph>
<glyph name="guillemetleft" format="2">
  <advance width="435"/>
  <unicode hex="00AB"/>
  <outline>
    <contour>
      <point x="340" y="45" type="line"/>
      <point x="405" y="85" type="line"/>
      <point x="285" y="248" type="line"/>
      <point x="285" y="252" type="line"/>
      <point x="405" y="415" type="line"/>
      <point x="340" y="455" type="line"/>
      <point x="185" y="250" type="line"/>
    </contour>
    <contour>
      <point x="175" y="45" type="line"/>
      <point x="240" y="85" type="line"/>
      <point x="120" y="248" type="line"/>
      <point x="120" y="252" type="line"/>
      <point x="240" y="415" type="line"/>
      <point x="175" y="455" type="line"/>
      <point x="20" y="250" type="line"/>
    </contour>
  </outline>
</glyph>
<glyph name="logicalnot" format="2">
  <advance width="420"/>
  <unicode hex="00AC"/>
  <outline>
    <contour>
      <point x="325" y="240" type="line"/>
      <point x="390" y="240" type="line"/>
      <point x="390" y="410" type="line"/>
      <point x="30" y="410" type="line"/>
      <point x="30" y="340" type="line"/>
      <point x="317" y="340" type="line"/>
    </contour>
  </outline>
</glyph>
<glyph name="degree" format="2">
  <advance width="380"/>
  <unicode hex="00B0"/>
  <outline>
    <contour>
      <point x="190" y="390" type="curve"/>
      <point x="280" y="390"/>
      <point x="340" y="450"/>
      <point x="340" y="550" type="curve" smooth="yes"/>
      <point x="340" y="650"/>
      <point x="280" y="710"/>
      <point x="190" y="710" type="curve"/>
      <point x="100" y="710"/>
      <point x="40" y="650"/>
      <point x="40" y="550" type="curve"/>
      <point x="40" y="450"/>
      <point x="100" y="390"/>
    </contour>
    <contour>
      <point x="190" y="450" type="curve" smooth="yes"/>
      <point x="150" y="450"/>
      <point x="120" y="480"/>
      <point x="120" y="550" type="curve"/>
      <point x="120" y="620"/>
      <point x="150" y="650"/>
      <point x="190" y="650" type="curve"/>
      <point x="230" y="650"/>
      <point x="260" y="620"/>
      <point x="260" y="550" type="curve" smooth="yes"/>
      <point x="260" y="480"/>
      <point x="230" y="450"/>
    </contour>
  </outline>
</glyph>
<glyph name="cedilla" format="2">
  <advance width="200"/>
  <unicode hex="00B8"/>
  <outline>
    <contour>
      <point x="95" y="-165" type="curve" smooth="yes"/>
      <point x="150" y="-165"/>
      <point x="180" y="-135"/>
      <point x="180" y="-95" type="curve" smooth="yes"/>
      <point x="180" y="-55"/>
      <point x="150" y="-25"/>
      <point x="95" y="-25" type="curve"/>
      <point x="80" y="-25" type="line"/>
      <point x="80" y="15" type="line"/>
      <point x="30" y="15" type="line"/>
      <point x="30" y="-70" type="line"/>
      <point x="85" y="-70" type="line"/>
      <point x="105" y="-70"/>
      <point x="115" y="-80"/>
      <point x="115" y="-95" type="curve"/>
      <point x="115" y="-110"/>
      <point x="105" y="-120"/>
      <point x="85" y="-120" type="curve" smooth="yes"/>
      <point x="20" y="-120" type="line"/>
      <point x="20" y="-150" type="line"/>
      <point x="20" y="-150"/>
      <point x="50" y="-165"/>
    </contour>
  </outline>
</glyph>
<glyph name="Eacute" format="2">
  <advance width="450"/>
  <unicode hex="00C9"/>
  <outline>
    <contour>
      <point x="70" y="0" type="line"/>
      <point x="410" y="0" type="line"/>
      <point x="410" y="70" type="line"/>
      <point x="160" y="70" type="line"/>
      <point x="160" y="330" type="line"/>
      <point x="380" y="330" type="line"/>
      <point x="380" y="400" type="line"/>
      <point x="160" y="400" type="line"/>
      <point x="160" y="630" type="line"/>
      <point x="410" y="630" type="line"/>
      <point x="410" y="700" type="line"/>
      <point x="70" y="700" type="line"/>
    </contour>
    <contour>
      <point x="210" y="750" type="line"/>
      <point x="270" y="750" type="line"/>
      <point x="340" y="880" type="line"/>
      <point x="245" y="880" type="line"/>
    </contour>
  </outline>
</glyph>
<glyph name="Idieresis" format="2">
  <advance width="230"/>
  <unicode hex="00CF"/>
  <anchor x="115" y="0" name="bottom"/>
  <anchor x="207" y="10" name="ogonek"/>
  <anchor x="115" y="700" name="top"/>
  <anchor x="20" y="700" name="topleft"/>
  <outline>
    <contour>
      <point x="-10" y="770" type="line"/>
      <point x="80" y="770" type="line"/>
      <point x="80" y="880" type="line"/>
      <point x="-10" y="880" type="line"/>
    </contour>
    <contour>
      <point x="150" y="770" type="line"/>
      <point x="240" y="770" type="line"/>
      <point x="240" y="880" type="line"/>
      <point x="150" y="880" type="line"/>
    </contour>
    <contour>
      <point x="70" y="0" type="line"/>
      <point x="160" y="0" type="line"/>
      <point x="160" y="700" type="line"/>
      <point x="70" y="700" type="line"/>
    </contour>
  </outline>
</glyph>
<glyph name="multiply" format="2">
  <advance width="400"/>
  <unicode hex="00D7"/>
  <outline>
    <contour>
      <point x="95" y="170" type="line"/>
      <point x="200" y="275" type="line"/>
      <point x="305" y="170" type="line"/>
      <point x="360" y="225" type="line"/>
      <point x="255" y="330" type="line"/>
      <point x="360" y="435" type="line"/>
      <point x="305" y="490" type="line"/>
      <point x="200" y="385" type="line"/>
      <point x="95" y="490" type="line"/>
      <point x="40" y="435" type="line"/>
      <point x="145" y="330" type="line"/>
      <point x="40" y="225" type="line"/>
    </contour>
  </outline>
</glyph>
<glyph name="Thorn" format="2">
  <advance width="500"/>
  <unicode hex="00DE"/>
  <outline>
    <contour>
      <point x="70" y="-10" type="line"/>
      <point x="160" y="-10" type="line"/>
      <point x="160" y="70" type="line"/>
      <point x="365" y="80"/>
      <point x="460" y="175"/>
      <point x="460" y="350" type="curve"/>
      <point x="460" y="525"/>
      <point x="365" y="620"/>
      <point x="160" y="630" type="curve"/>
      <point x="160" y="710" type="line"/>
      <point x="70" y="710" type="line"/>
    </contour>
    <contour>
      <point x="160" y="135" type="curve"/>
      <point x="160" y="565" type="line"/>
      <point x="300" y="560"/>
      <point x="370" y="490"/>
      <point x="370" y="350" type="curve"/>
      <point x="370" y="210"/>
      <point x="300" y="140"/>
    </contour>
  </outline>
</glyph>
<glyph name="idieresis" format="2">
  <advance width="230"/>
  <unicode hex="00EF"/>
  <outline>
    <contour>
      <point x="70" y="0" type="line"/>
      <point x="160" y="0" type="line"/>
      <point x="160" y="500" type="line"/>
      <point x="70" y="500" type="line"/>
    </contour>
    <contour>
      <point x="-10" y="570" type="line"/>
      <point x="80" y="570" type="line"/>
      <point x="80" y="680" type="line"/>
      <point x="-10" y="680" type="line"/>
    </contour>
    <contour>
      <point x="150" y="570" type="line"/>
      <point x="240" y="570" type="line"/>
      <point x="240" y="680" type="line"/>
      <point x="150" y="680" type="line"/>
    </contour>
  </outline>
</glyph>
<glyph name="Ccaron" format="2">
  <advance width="435"/>
  <unicode hex="010C"/>
  <outline>
    <contour>
      <point x="270" y="-10" type="curve" smooth="yes"/>
      <point x="330" y="-10"/>
      <point x="390" y="0"/>
      <point x="420" y="10" type="curve"/>
      <point x="420" y="55" type="line"/>
      <point x="290" y="55" type="line" smooth="yes"/>
      <point x="200" y="55"/>
      <point x="140" y="115"/>
      <point x="140" y="350" type="curve" smooth="yes"/>
      <point x="140" y="585"/>
      <point x="200" y="645"/>
      <point x="280" y="645" type="curve" smooth="yes"/>
      <point x="410" y="645" type="line"/>
      <point x="410" y="690" type="line"/>
      <point x="380" y="700"/>
      <point x="320" y="710"/>
      <point x="260" y="710" type="curve" smooth="yes"/>
      <point x="130" y="710"/>
      <point x="50" y="630"/>
      <point x="50" y="350" type="curve" smooth="yes"/>
      <point x="50" y="70"/>
      <point x="130" y="-10"/>
    </contour>
    <contour>
      <point x="208" y="760" type="line"/>
      <point x="303" y="760" type="line"/>
      <point x="378" y="890" type="line"/>
      <point x="318" y="890" type="line"/>
      <point x="255" y="816" type="line"/>
      <point x="193" y="890" type="line"/>
      <point x="133" y="890" type="line"/>
    </contour>
  </outline>
</glyph>
<glyph name="Emacron" format="2">
  <advance width="450"/>
  <unicode hex="0112"/>
  <outline>
    <contour>
      <point x="70" y="0" type="line"/>
      <point x="410" y="0" type="line"/>
      <point x="410" y="70" type="line"/>
      <point x="160" y="70" type="line"/>
      <point x="160" y="330" type="line"/>
      <point x="380" y="330" type="line"/>
      <point x="380" y="400" type="line"/>
      <point x="160" y="400" type="line"/>
      <point x="160" y="630" type="line"/>
      <point x="410" y="630" type="line"/>
      <point x="410" y="700" type="line"/>
      <point x="70" y="700" type="line"/>
    </contour>
    <contour>
      <point x="124" y="770" type="line"/>
      <point x="354" y="770" type="line"/>
      <point x="354" y="830" type="line"/>
      <point x="124" y="830" type="line"/>
    </contour>
  </outline>
</glyph>
<glyph name="Eogonek" format="2">
  <advance width="450"/>
  <unicode hex="0118"/>
  <outline>
    <contour>
      <point x="385" y="-160" type="curve" smooth="yes"/>
      <point x="430" y="-160"/>
      <point x="460" y="-145"/>
      <point x="460" y="-145" type="curve"/>
      <point x="460" y="-104" type="line"/>
      <point x="425" y="-104" type="line" smooth="yes"/>
      <point x="380" y="-104"/>
      <point x="365" y="-90"/>
      <point x="365" y="-45" type="curve" smooth="yes"/>
      <point x="365" y="0" type="line"/>
      <point x="410" y="0" type="line"/>
      <point x="410" y="70" type="line"/>
      <point x="160" y="70" type="line"/>
      <point x="160" y="330" type="line"/>
      <point x="380" y="330" type="line"/>
      <point x="380" y="400" type="line"/>
      <point x="160" y="400" type="line"/>
      <point x="160" y="630" type="line"/>
      <point x="410" y="630" type="line"/>
      <point x="410" y="700" type="line"/>
      <point x="70" y="700" type="line"/>
      <point x="70" y="0" type="line"/>
      <point x="325" y="0" type="line"/>
      <point x="325" y="0"/>
      <point x="300" y="-35"/>
      <point x="300" y="-80" type="curve" smooth="yes"/>
      <point x="300" y="-130"/>
      <point x="330" y="-160"/>
    </contour>
  </outline>
</glyph>
<glyph name="eogonek" format="2">
  <advance width="440"/>
  <unicode hex="0119"/>
  <outline>
    <contour>
      <point x="275" y="-160" type="curve" smooth="yes"/>
      <point x="320" y="-160"/>
      <point x="350" y="-145"/>
      <point x="350" y="-145" type="curve"/>
      <point x="350" y="-104" type="line"/>
      <point x="315" y="-104" type="line" smooth="yes"/>
      <point x="270" y="-104"/>
      <point x="255" y="-90"/>
      <point x="255" y="-45" type="curve" smooth="yes"/>
      <point x="255" y="-10" type="line"/>
      <point x="295" y="-10"/>
      <point x="345" y="0"/>
      <point x="375" y="10" type="curve"/>
      <point x="375" y="50" type="line"/>
      <point x="275" y="50" type="line" smooth="yes"/>
      <point x="175" y="50"/>
      <point x="135" y="90"/>
      <point x="135" y="220" type="curve"/>
      <point x="395" y="220" type="line"/>
      <point x="395" y="250" type="line"/>
      <point x="395" y="450"/>
      <point x="335" y="510"/>
      <point x="220" y="510" type="curve" smooth="yes"/>
      <point x="105" y="510"/>
      <point x="45" y="450"/>
      <point x="45" y="250" type="curve" smooth="yes"/>
      <point x="45" y="71"/>
      <point x="93" y="4"/>
      <point x="210" y="-7" type="curve"/>
      <point x="203" y="-20"/>
      <point x="190" y="-47"/>
      <point x="190" y="-80" type="curve" smooth="yes"/>
      <point x="190" y="-130"/>
      <point x="220" y="-160"/>
    </contour>
    <contour>
      <point x="135" y="280" type="line"/>
      <point x="135" y="415"/>
      <point x="175" y="455"/>
      <point x="220" y="455" type="curve" smooth="yes"/>
      <point x="265" y="455"/>
      <point x="305" y="415"/>
      <point x="305" y="280" type="curve"/>
    </contour>
  </outline>
</glyph>
<glyph name="Iogonek" format="2">
  <advance width="230"/>
  <unicode hex="012E"/>
  <outline>
    <contour>
      <point x="140" y="-160" type="curve" smooth="yes"/>
      <point x="185" y="-160"/>
      <point x="215" y="-145"/>
      <point x="215" y="-145" type="curve"/>
      <point x="215" y="-104" type="line"/>
      <point x="180" y="-104" type="line" smooth="yes"/>
      <point x="135" y="-104"/>
      <point x="120" y="-90"/>
      <point x="120" y="-45" type="curve" smooth="yes"/>
      <point x="120" y="0" type="line"/>
      <point x="160" y="0" type="line"/>
      <point x="160" y="700" type="line"/>
      <point x="70" y="700" type="line"/>
      <point x="70" y="0" type="line"/>
      <point x="80" y="0" type="line"/>
      <point x="80" y="0"/>
      <point x="55" y="-35"/>
      <point x="55" y="-80" type="curve" smooth="yes"/>
      <point x="55" y="-130"/>
      <point x="85" y="-160"/>
    </contour>
  </outline>
</glyph>
<glyph name="Kcommaaccent" format="2">
  <advance width="490"/>
  <unicode hex="0136"/>
  <outline>
    <contour>
      <point x="70" y="0" type="line"/>
      <point x="160" y="0" type="line"/>
      <point x="160" y="350" type="line"/>
      <point x="375" y="0" type="line"/>
      <point x="480" y="0" type="line"/>
      <point x="255" y="355" type="line"/>
      <point x="460" y="700" type="line"/>
      <point x="355" y="700" type="line"/>
      <point x="160" y="360" type="line"/>
      <point x="160" y="700" type="line"/>
      <point x="70" y="700" type="line"/>
    </contour>
    <contour>
      <point x="210" y="-200" type="line"/>
      <point x="270" y="-200" type="line"/>
      <point x="300" y="-50" type="line"/>
      <point x="210" y="-50" type="line"/>
    </contour>
  </outline>
</glyph>
<glyph name="OE" format="2">
  <advance width="740"/>
  <unicode hex="0152"/>
  <outline>
    <contour>
      <point x="330" y="0" type="curve" smooth="yes"/>
      <point x="700" y="0" type="line"/>
      <point x="700" y="70" type="line"/>
      <point x="450" y="70" type="line"/>
      <point x="450" y="330" type="line"/>
      <point x="670" y="330" type="line"/>
      <point x="670" y="400" type="line"/>
      <point x="450" y="400" type="line"/>
      <point x="450" y="630" type="line"/>
      <point x="700" y="630" type="line"/>
      <point x="700" y="700" type="line"/>
      <point x="330" y="700" type="line"/>
      <point x="140" y="700"/>
      <point x="40" y="600"/>
      <point x="40" y="350" type="curve"/>
      <point x="40" y="100"/>
      <point x="140" y="0"/>
    </contour>
    <contour>
      <point x="330" y="70" type="line" smooth="yes"/>
      <point x="200" y="70"/>
      <point x="130" y="140"/>
      <point x="130" y="350" type="curve"/>
      <point x="130" y="560"/>
      <point x="200" y="630"/>
      <point x="330" y="630" type="curve" smooth="yes"/>
      <point x="360" y="630" type="line"/>
      <point x="360" y="70" type="line"/>
    </contour>
  </outline>
</glyph>
<glyph name="rcaron" format="2">
  <advance width="335"/>
  <unicode hex="0159"/>
  <outline>
    <contour>
      <point x="65" y="0" type="line"/>
      <point x="155" y="0" type="line"/>
      <point x="155" y="405" type="line"/>
      <point x="175" y="420"/>
      <point x="200" y="425"/>
      <point x="225" y="425" type="curve" smooth="yes"/>
      <point x="325" y="425" type="line"/>
      <point x="325" y="500" type="line"/>
      <point x="275" y="500" type="line" smooth="yes"/>
      <point x="215" y="500"/>
      <point x="175" y="480"/>
      <point x="151" y="460" type="curve"/>
      <point x="146" y="460" type="line"/>
      <point x="141" y="500" type="line"/>
      <point x="65" y="500" type="line"/>
    </contour>
    <contour>
      <point x="145" y="550" type="line"/>
      <point x="240" y="550" type="line"/>
      <point x="315" y="680" type="line"/>
      <point x="255" y="680" type="line"/>
      <point x="192" y="606" type="line"/>
      <point x="130" y="680" type="line"/>
      <point x="70" y="680" type="line"/>
    </contour>
  </outline>
</glyph>
<glyph name="Uogonek" format="2">
  <advance width="520"/>
  <unicode hex="0172"/>
  <outline>
    <contour>
      <point x="300" y="-160" type="curve" smooth="yes"/>
      <point x="345" y="-160"/>
      <point x="375" y="-145"/>
      <point x="375" y="-145" type="curve"/>
      <point x="375" y="-104" type="line"/>
      <point x="340" y="-104" type="line" smooth="yes"/>
      <point x="295" y="-104"/>
      <point x="280" y="-90"/>
      <point x="280" y="-45" type="curve" smooth="yes"/>
      <point x="280" y="-9" type="line"/>
      <point x="406" y="-4"/>
      <point x="460" y="59"/>
      <point x="460" y="240" type="curve" smooth="yes"/>
      <point x="460" y="700" type="line"/>
      <point x="370" y="700" type="line"/>
      <point x="370" y="240" type="line" smooth="yes"/>
      <point x="370" y="90"/>
      <point x="330" y="50"/>
      <point x="260" y="50" type="curve" smooth="yes"/>
      <point x="190" y="50"/>
      <point x="150" y="90"/>
      <point x="150" y="240" type="curve" smooth="yes"/>
      <point x="150" y="700" type="line"/>
      <point x="60" y="700" type="line"/>
      <point x="60" y="240" type="line" smooth="yes"/>
      <point x="60" y="61"/>
      <point x="113" y="-2"/>
      <point x="234" y="-9" type="curve"/>
      <point x="227" y="-22"/>
      <point x="215" y="-48"/>
      <point x="215" y="-80" type="curve" smooth="yes"/>
      <point x="215" y="-130"/>
      <point x="245" y="-160"/>
    </contour>
  </outline>
</glyph>
<glyph name="Zacute" format="2">
  <advance width="405"/>
  <unicode hex="0179"/>
  <outline>
    <contour>
      <point x="20" y="0" type="line"/>
      <point x="380" y="0" type="line"/>
      <point x="380" y="70" type="line"/>
      <point x="125" y="70" type="line"/>
      <point x="385" y="635" type="line"/>
      <point x="385" y="700" type="line"/>
      <point x="25" y="700" type="line"/>
      <point x="25" y="630" type="line"/>
      <point x="280" y="630" type="line"/>
      <point x="20" y="65" type="line"/>
    </contour>
    <contour>
      <point x="170" y="750" type="line"/>
      <point x="230" y="750" type="line"/>
      <point x="300" y="880" type="line"/>
      <point x="205" y="880" type="line"/>
    </contour>
  </outline>
</glyph>
<glyph name="zcaron" format="2">
  <advance width="370"/>
  <unicode hex="017E"/>
  <outline>
    <contour>
      <point x="20" y="0" type="line"/>
      <point x="345" y="0" type="line"/>
      <point x="345" y="65" type="line"/>
      <point x="126" y="65" type="line"/>
      <point x="350" y="440" type="line"/>
      <point x="350" y="500" type="line"/>
      <point x="30" y="500" type="line"/>
      <point x="30" y="435" type="line"/>
      <point x="245" y="435" type="line"/>
      <point x="20" y="60" type="line"/>
    </contour>
    <contour>
      <point x="148" y="560" type="line"/>
      <point x="243" y="560" type="line"/>
      <point x="318" y="690" type="line"/>
      <point x="258" y="690" type="line"/>
      <point x="195" y="616" type="line"/>
      <point x="133" y="690" type="line"/>
      <point x="73" y="690" type="line"/>
    </contour>
  </outline>
</glyph>
<glyph name="circumflex" format="2">
  <advance width="285"/>
  <unicode hex="02C6"/>
  <outline>
    <contour>
      <point x="20" y="550" type="line"/>
      <point x="80" y="550" type="line"/>
      <point x="142" y="624" type="line"/>
      <point x="205" y="550" type="line"/>
      <point x="265" y="550" type="line"/>
      <point x="190" y="680" type="line"/>
      <point x="95" y="680" type="line"/>
    </contour>
  </outline>
</glyph>
<glyph name="brevecomb" format="2">
  <unicode hex="0306"/>
  <anchor x="230" y="500" name="_top"/>
  <anchor x="230" y="680" name="top"/>
  <outline>
    <contour>
      <point x="230" y="570" type="curve" smooth="yes"/>
      <point x="295" y="570"/>
      <point x="340" y="600"/>
      <point x="365" y="640" type="curve"/>
      <point x="325" y="680" type="line"/>
      <point x="305" y="660"/>
      <point x="270" y="640"/>
      <point x="230" y="640" type="curve" smooth="yes"/>
      <point x="190" y="640"/>
      <point x="155" y="660"/>
      <point x="135" y="680" type="curve"/>
      <point x="95" y="640" type="line"/>
      <point x="120" y="600"/>
      <point x="165" y="570"/>
    </contour>
  </outline>
</glyph>
<glyph name="hookabovecomb" format="2">
  <unicode hex="0309"/>
  <anchor x="176" y="500" name="_top"/>
  <anchor x="176" y="720" name="top"/>
  <outline>
    <contour>
      <point x="148" y="549" type="curve"/>
      <point x="199" y="549" type="line"/>
      <point x="199" y="580"/>
      <point x="251" y="595"/>
      <point x="251" y="632" type="curve" smooth="yes"/>
      <point x="251" y="702"/>
      <point x="203" y="720"/>
      <point x="157" y="720" type="curve" smooth="yes"/>
      <point x="134" y="720"/>
      <point x="111" y="716"/>
      <point x="100" y="712" type="curve"/>
      <point x="100" y="665" type="line"/>
      <point x="150" y="665" type="line" smooth="yes"/>
      <point x="176" y="665"/>
      <point x="192" y="654"/>
      <point x="192" y="628" type="curve" smooth="yes"/>
      <point x="192" y="602"/>
      <point x="148" y="591"/>
    </contour>
  </outline>
</glyph>
<glyph name="hungarumlautcomb" format="2">
  <unicode hex="030B"/>
  <anchor x="120" y="500" name="_top"/>
  <anchor x="175" y="686" name="top"/>
  <outline>
    <contour>
      <point x="152" y="560" type="line"/>
      <point x="207" y="560" type="line"/>
      <point x="297" y="686" type="line"/>
      <point x="207" y="686" type="line"/>
    </contour>
    <contour>
      <point x="37" y="560" type="line"/>
      <point x="92" y="560" type="line"/>
      <point x="182" y="686" type="line"/>
      <point x="92" y="686" type="line"/>
    </contour>
  </outline>
</glyph>
<glyph name="Lje-cy" format="2">
  <advance width="790"/>
  <unicode hex="0409"/>
  <outline>
    <contour>
      <point x="60" y="-10" type="curve" smooth="yes"/>
      <point x="125" y="-10"/>
      <point x="182" y="50"/>
      <point x="190" y="210" type="curve" smooth="yes"/>
      <point x="212" y="630" type="line"/>
      <point x="370" y="630" type="line"/>
      <point x="370" y="10" type="line"/>
      <point x="420" y="-5"/>
      <point x="470" y="-10"/>
      <point x="530" y="-10" type="curve" smooth="yes"/>
      <point x="690" y="-10"/>
      <point x="750" y="50"/>
      <point x="750" y="205" type="curve" smooth="yes"/>
      <point x="750" y="365"/>
      <point x="690" y="425"/>
      <point x="560" y="425" type="curve" smooth="yes"/>
      <point x="530" y="425"/>
      <point x="485" y="420"/>
      <point x="460" y="415" type="curve"/>
      <point x="460" y="700" type="line"/>
      <point x="125" y="700" type="line"/>
      <point x="100" y="210" type="line" smooth="yes"/>
      <point x="94" y="85"/>
      <point x="55" y="45"/>
      <point x="0" y="45" type="curve"/>
      <point x="0" y="0" type="line"/>
      <point x="0" y="0"/>
      <point x="25" y="-10"/>
    </contour>
    <contour>
      <point x="460" y="55" type="line"/>
      <point x="460" y="355" type="line"/>
      <point x="530" y="355" type="line"/>
      <point x="620" y="355"/>
      <point x="660" y="315"/>
      <point x="660" y="205" type="curve" smooth="yes"/>
      <point x="660" y="95"/>
      <point x="620" y="55"/>
      <point x="530" y="55" type="curve" smooth="yes"/>
    </contour>
  </outline>
</glyph>
<glyph name="Ushort-cy" format="2">
  <advance width="460"/>
  <unicode hex="040E"/>
  <outline>
    <contour>
      <point x="180" y="-10" type="curve" smooth="yes"/>
      <point x="270" y="-10"/>
      <point x="318" y="40"/>
      <point x="340" y="160" type="curve" smooth="yes"/>
      <point x="440" y="700" type="line"/>
      <point x="350" y="700" type="line"/>
      <point x="270" y="265" type="line"/>
      <point x="235" y="265"/>
      <point x="210" y="285"/>
      <point x="200" y="320" type="curve" smooth="yes"/>
      <point x="90" y="700" type="line"/>
      <point x="0" y="700" type="line"/>
      <point x="110" y="320" type="line" smooth="yes"/>
      <point x="132" y="245"/>
      <point x="180" y="200"/>
      <point x="257" y="200" type="curve"/>
      <point x="240" y="90"/>
      <point x="205" y="55"/>
      <point x="150" y="55" type="curve" smooth="yes"/>
      <point x="80" y="55" type="line"/>
      <point x="80" y="10" type="line"/>
      <point x="110" y="0"/>
      <point x="150" y="-10"/>
    </contour>
    <contour>
      <point x="230" y="750" type="curve" smooth="yes"/>
      <point x="295" y="750"/>
      <point x="345" y="780"/>
      <point x="370" y="825" type="curve"/>
      <point x="330" y="865" type="line"/>
      <point x="310" y="845"/>
      <point x="275" y="820"/>
      <point x="230" y="820" type="curve" smooth="yes"/>
      <point x="185" y="820"/>
      <point x="150" y="845"/>
      <point x="130" y="865" type="curve"/>
      <point x="90" y="825" type="line"/>
      <point x="115" y="780"/>
      <point x="165" y="750"/>
    </contour>
  </outline>
</glyph>
<glyph name="El-cy" format="2">
  <advance width="530"/>
  <unicode hex="041B"/>
  <outline>
    <contour>
      <point x="60" y="-10" type="curve" smooth="yes"/>
      <point x="125" y="-10"/>
      <point x="182" y="50"/>
      <point x="190" y="210" type="curve" smooth="yes"/>
      <point x="212" y="630" type="line"/>
      <point x="370" y="630" type="line"/>
      <point x="370" y="0" type="line"/>
      <point x="460" y="0" type="line"/>
      <point x="460" y="700" type="line"/>
      <point x="125" y="700" type="line"/>
      <point x="100" y="210" type="line" smooth="yes"/>
      <point x="94" y="85"/>
      <point x="55" y="45"/>
      <point x="0" y="45" type="curve"/>
      <point x="0" y="0" type="line"/>
      <point x="0" y="0"/>
      <point x="25" y="-10"/>
    </contour>
  </outline>
</glyph>
<glyph name="U-cy" format="2">
  <advance width="465"/>
  <unicode hex="0423"/>
  <anchor x="233" y="700" name="top"/>
  <outline>
    <contour>
      <point x="176" y="-10" type="curve" smooth="yes"/>
      <point x="265" y="-10"/>
      <point x="312" y="40"/>
      <point x="336" y="160" type="curve" smooth="yes"/>
      <point x="445" y="700" type="line"/>
      <point x="355" y="700" type="line"/>
      <point x="267" y="265" type="line"/>
      <point x="230" y="265"/>
      <point x="205" y="285"/>
      <point x="195" y="320" type="curve" smooth="yes"/>
      <point x="90" y="700" type="line"/>
      <point x="0" y="700" type="line"/>
      <point x="105" y="320" type="line" smooth="yes"/>
      <point x="125" y="246"/>
      <point x="170" y="200"/>
      <point x="254" y="200" type="curve"/>
      <point x="231" y="85"/>
      <point x="200" y="55"/>
      <point x="146" y="55" type="curve" smooth="yes"/>
      <point x="76" y="55" type="line"/>
      <point x="76" y="10" type="line"/>
      <point x="106" y="0"/>
      <point x="146" y="-10"/>
    </contour>
  </outline>
</glyph>
<glyph name="ve-cy" format="2">
  <advance width="450"/>
  <unicode hex="0432"/>
  <outline>
    <contour>
      <point x="225" y="-10" type="curve" smooth="yes"/>
      <point x="350" y="-10"/>
      <point x="410" y="20"/>
      <point x="410" y="140" type="curve" smooth="yes"/>
      <point x="410" y="215"/>
      <point x="365" y="250"/>
      <point x="320" y="263" type="curve"/>
      <point x="320" y="267" type="line"/>
      <point x="355" y="280"/>
      <point x="390" y="305"/>
      <point x="390" y="370" type="curve" smooth="yes"/>
      <point x="390" y="480"/>
      <point x="330" y="510"/>
      <point x="215" y="510" type="curve" smooth="yes"/>
      <point x="165" y="510"/>
      <point x="115" y="505"/>
      <point x="65" y="490" type="curve"/>
      <point x="65" y="10" type="line"/>
      <point x="115" y="-5"/>
      <point x="165" y="-10"/>
    </contour>
    <contour>
      <point x="155" y="50" type="line"/>
      <point x="155" y="230" type="line"/>
      <point x="225" y="230" type="line" smooth="yes"/>
      <point x="285" y="230"/>
      <point x="320" y="210"/>
      <point x="320" y="140" type="curve" smooth="yes"/>
      <point x="320" y="70"/>
      <point x="285" y="50"/>
      <point x="225" y="50" type="curve" smooth="yes"/>
    </contour>
    <contour>
      <point x="155" y="290" type="line"/>
      <point x="155" y="450" type="line"/>
      <point x="215" y="450" type="line"/>
      <point x="265" y="450"/>
      <point x="300" y="430"/>
      <point x="300" y="370" type="curve" smooth="yes"/>
      <point x="300" y="310"/>
      <point x="265" y="290"/>
      <point x="215" y="290" type="curve" smooth="yes"/>
    </contour>
  </outline>
</glyph>
<glyph name="iishort-cy" format="2">
  <advance width="480"/>
  <unicode hex="0439"/>
  <outline>
    <contour>
      <point x="65" y="0" type="line"/>
      <point x="160" y="0" type="line"/>
      <point x="320" y="350" type="line"/>
      <point x="325" y="350" type="line"/>
      <point x="325" y="0" type="line"/>
      <point x="415" y="0" type="line"/>
      <point x="415" y="500" type="line"/>
      <point x="310" y="500" type="line"/>
      <point x="160" y="160" type="line"/>
      <point x="155" y="160" type="line"/>
      <point x="155" y="500" type="line"/>
      <point x="65" y="500" type="line"/>
    </contour>
    <contour>
      <point x="235" y="560" type="curve" smooth="yes"/>
      <point x="300" y="560"/>
      <point x="345" y="590"/>
      <point x="370" y="630" type="curve"/>
      <point x="330" y="670" type="line"/>
      <point x="310" y="650"/>
      <point x="275" y="630"/>
      <point x="235" y="630" type="curve"/>
      <point x="195" y="630"/>
      <point x="160" y="650"/>
      <point x="140" y="670" type="curve"/>
      <point x="100" y="630" type="line"/>
      <point x="125" y="590"/>
      <point x="170" y="560"/>
    </contour>
  </outline>
</glyph>
<glyph name="pe-cy" format="2">
  <advance width="475"/>
  <unicode hex="043F"/>
  <anchor x="320" y="0" name="bottomright"/>
  <outline>
    <contour>
      <point x="65" y="0" type="line"/>
      <point x="155" y="0" type="line"/>
      <point x="155" y="435" type="line"/>
      <point x="320" y="435" type="line"/>
      <point x="320" y="0" type="line"/>
      <point x="410" y="0" type="line"/>
      <point x="410" y="500" type="line"/>
      <point x="65" y="500" type="line"/>
    </contour>
  </outline>
</glyph>
<glyph name="shcha-cy" format="2">
  <advance width="690"/>
  <unicode hex="0449"/>
  <outline>
    <contour>
      <point x="610" y="-145" type="curve"/>
      <point x="665" y="-145" type="line"/>
      <point x="665" y="65" type="line"/>
      <point x="605" y="65" type="line"/>
      <point x="605" y="500" type="line"/>
      <point x="515" y="500" type="line"/>
      <point x="515" y="65" type="line"/>
      <point x="380" y="65" type="line"/>
      <point x="380" y="500" type="line"/>
      <point x="290" y="500" type="line"/>
      <point x="290" y="65" type="line"/>
      <point x="155" y="65" type="line"/>
      <point x="155" y="500" type="line"/>
      <point x="65" y="500" type="line"/>
      <point x="65" y="0" type="line"/>
      <point x="580" y="0" type="line"/>
      <point x="585" y="-50"/>
      <point x="595" y="-105"/>
    </contour>
  </outline>
</glyph>
<glyph name="hardsign-cy" format="2">
  <advance width="505"/>
  <unicode hex="044A"/>
  <outline>
    <contour>
      <point x="280" y="-10" type="curve" smooth="yes"/>
      <point x="405" y="-10"/>
      <point x="465" y="20"/>
      <point x="465" y="150" type="curve" smooth="yes"/>
      <point x="465" y="285"/>
      <point x="405" y="315"/>
      <point x="310" y="315" type="curve" smooth="yes"/>
      <point x="270" y="315"/>
      <point x="240" y="310"/>
      <point x="210" y="305" type="curve"/>
      <point x="210" y="500" type="line"/>
      <point x="20" y="500" type="line"/>
      <point x="20" y="435" type="line"/>
      <point x="120" y="435" type="line"/>
      <point x="120" y="10" type="line"/>
      <point x="170" y="-5"/>
      <point x="220" y="-10"/>
    </contour>
    <contour>
      <point x="210" y="50" type="line"/>
      <point x="210" y="250" type="line"/>
      <point x="280" y="250" type="line" smooth="yes"/>
      <point x="340" y="250"/>
      <point x="375" y="230"/>
      <point x="375" y="150" type="curve" smooth="yes"/>
      <point x="375" y="70"/>
      <point x="340" y="50"/>
      <point x="280" y="50" type="curve" smooth="yes"/>
    </contour>
  </outline>
</glyph>
<glyph name="yeru-cy" format="2">
  <advance width="630"/>
  <unicode hex="044B"/>
  <anchor x="315" y="500" name="top"/>
  <outline>
    <contour>
      <point x="225" y="-10" type="curve" smooth="yes"/>
      <point x="345" y="-10"/>
      <point x="405" y="20"/>
      <point x="405" y="150" type="curve" smooth="yes"/>
      <point x="405" y="285"/>
      <point x="345" y="315"/>
      <point x="255" y="315" type="curve" smooth="yes"/>
      <point x="215" y="315"/>
      <point x="185" y="310"/>
      <point x="155" y="305" type="curve"/>
      <point x="155" y="500" type="line"/>
      <point x="65" y="500" type="line"/>
      <point x="65" y="10" type="line"/>
      <point x="115" y="-5"/>
      <point x="165" y="-10"/>
    </contour>
    <contour>
      <point x="155" y="50" type="line"/>
      <point x="155" y="250" type="line"/>
      <point x="225" y="250" type="line" smooth="yes"/>
      <point x="280" y="250"/>
      <point x="315" y="230"/>
      <point x="315" y="150" type="curve" smooth="yes"/>
      <point x="315" y="70"/>
      <point x="280" y="50"/>
      <point x="225" y="50" type="curve" smooth="yes"/>
    </contour>
    <contour>
      <point x="475" y="0" type="line"/>
      <point x="565" y="0" type="line"/>
      <point x="565" y="500" type="line"/>
      <point x="475" y="500" type="line"/>
    </contour>
  </outline>
</glyph>
<glyph name="dje-cy" format="2">
  <advance width="475"/>
  <unicode hex="0452"/>
  <outline>
    <contour>
      <point x="300" y="-10" type="curve" smooth="yes"/>
      <point x="385" y="-10"/>
      <point x="425" y="30"/>
      <point x="425" y="150" type="curve"/>
      <point x="425" y="330" type="line" smooth="yes"/>
      <point x="425" y="450"/>
      <point x="365" y="480"/>
      <point x="280" y="480" type="curve" smooth="yes"/>
      <point x="235" y="480"/>
      <point x="200" y="470"/>
      <point x="170" y="455" type="curve"/>
      <point x="170" y="545" type="line"/>
      <point x="190" y="545" type="line" smooth="yes"/>
      <point x="230" y="545"/>
      <point x="280" y="555"/>
      <point x="310" y="565" type="curve"/>
      <point x="310" y="610" type="line"/>
      <point x="170" y="610" type="line"/>
      <point x="170" y="700" type="line"/>
      <point x="80" y="700" type="line"/>
      <point x="80" y="610" type="line"/>
      <point x="20" y="610" type="line"/>
      <point x="20" y="545" type="line"/>
      <point x="80" y="545" type="line"/>
      <point x="80" y="0" type="line"/>
      <point x="170" y="0" type="line"/>
      <point x="170" y="400" type="line"/>
      <point x="185" y="410"/>
      <point x="215" y="420"/>
      <point x="240" y="420" type="curve" smooth="yes"/>
      <point x="295" y="420"/>
      <point x="335" y="400"/>
      <point x="335" y="330" type="curve" smooth="yes"/>
      <point x="335" y="150" type="line"/>
      <point x="335" y="70"/>
      <point x="315" y="50"/>
      <point x="275" y="50" type="curve" smooth="yes"/>
      <point x="235" y="50" type="line"/>
      <point x="235" y="10" type="line"/>
      <point x="255" y="-5"/>
      <point x="275" y="-10"/>
    </contour>
  </outline>
</glyph>
<glyph name="kje-cy" format="2">
  <advance width="445"/>
  <unicode hex="045C"/>
  <outline>
    <contour>
      <point x="380" y="-10" type="curve" smooth="yes"/>
      <point x="410" y="-10"/>
      <point x="435" y="0"/>
      <point x="435" y="0" type="curve"/>
      <point x="435" y="40" type="line"/>
      <point x="395" y="40"/>
      <point x="380" y="55"/>
      <point x="375" y="75" type="curve" smooth="yes"/>
      <point x="350" y="170" type="line" smooth="yes"/>
      <point x="333" y="235"/>
      <point x="305" y="255"/>
      <point x="269" y="263" type="curve"/>
      <point x="269" y="267" type="line"/>
      <point x="299" y="275"/>
      <point x="319" y="295"/>
      <point x="340" y="355" type="curve" smooth="yes"/>
      <point x="365" y="425" type="line" smooth="yes"/>
      <point x="372" y="445"/>
      <point x="385" y="460"/>
      <point x="425" y="460" type="curve"/>
      <point x="425" y="500" type="line"/>
      <point x="425" y="500"/>
      <point x="395" y="510"/>
      <point x="370" y="510" type="curve" smooth="yes"/>
      <point x="315" y="510"/>
      <point x="291" y="483"/>
      <point x="270" y="425" type="curve" smooth="yes"/>
      <point x="245" y="355" type="line" smooth="yes"/>
      <point x="229" y="310"/>
      <point x="210" y="295"/>
      <point x="189" y="295" type="curve" smooth="yes"/>
      <point x="155" y="295" type="line"/>
      <point x="155" y="500" type="line"/>
      <point x="65" y="500" type="line"/>
      <point x="65" y="0" type="line"/>
      <point x="155" y="0" type="line"/>
      <point x="155" y="230" type="line"/>
      <point x="189" y="230" type="line" smooth="yes"/>
      <point x="220" y="230"/>
      <point x="244" y="210"/>
      <point x="255" y="170" type="curve" smooth="yes"/>
      <point x="280" y="75" type="line" smooth="yes"/>
      <point x="295" y="20"/>
      <point x="325" y="-10"/>
    </contour>
    <contour>
      <point x="195" y="560" type="line"/>
      <point x="255" y="560" type="line"/>
      <point x="325" y="690" type="line"/>
      <point x="230" y="690" type="line"/>
    </contour>
  </outline>
</glyph>
<glyph name="Yusbig-cy" format="2">
  <advance width="726"/>
  <unicode hex="046A"/>
  <outline>
    <contour>
      <point x="58" y="-10" type="curve" smooth="yes"/>
      <point x="118" y="-10"/>
      <point x="158" y="30"/>
      <point x="173" y="110" type="curve" smooth="yes"/>
      <point x="198" y="240" type="line" smooth="yes"/>
      <point x="211" y="310"/>
      <point x="248" y="330"/>
      <point x="293" y="330" type="curve" smooth="yes"/>
      <point x="318" y="330" type="line"/>
      <point x="318" y="0" type="line"/>
      <point x="408" y="0" type="line"/>
      <point x="408" y="330" type="line"/>
      <point x="433" y="330" type="line" smooth="yes"/>
      <point x="478" y="330"/>
      <point x="515" y="310"/>
      <point x="528" y="240" type="curve" smooth="yes"/>
      <point x="553" y="110" type="line" smooth="yes"/>
      <point x="568" y="30"/>
      <point x="608" y="-10"/>
      <point x="668" y="-10" type="curve" smooth="yes"/>
      <point x="703" y="-10"/>
      <point x="728" y="0"/>
      <point x="728" y="0" type="curve"/>
      <point x="728" y="45" type="line"/>
      <point x="678" y="45"/>
      <point x="655" y="75"/>
      <point x="648" y="110" type="curve" smooth="yes"/>
      <point x="623" y="240" type="line" smooth="yes"/>
      <point x="601" y="350"/>
      <point x="541" y="400"/>
      <point x="405" y="400" type="curve" smooth="yes"/>
      <point x="321" y="400" type="line" smooth="yes"/>
      <point x="185" y="400"/>
      <point x="125" y="349"/>
      <point x="103" y="240" type="curve" smooth="yes"/>
      <point x="78" y="110" type="line" smooth="yes"/>
      <point x="71" y="75"/>
      <point x="48" y="45"/>
      <point x="-2" y="45" type="curve"/>
      <point x="-2" y="0" type="line"/>
      <point x="-2" y="0"/>
      <point x="23" y="-10"/>
    </contour>
    <contour>
      <point x="243" y="375" type="line"/>
      <point x="342" y="375" type="line"/>
      <point x="105" y="700" type="line"/>
      <point x="30" y="700" type="line"/>
      <point x="30" y="662" type="line"/>
    </contour>
    <contour>
      <point x="91" y="630" type="line"/>
      <point x="637" y="630" type="line"/>
      <point x="637" y="700" type="line"/>
      <point x="91" y="700" type="line"/>
    </contour>
    <contour>
      <point x="385" y="375" type="line"/>
      <point x="481" y="375" type="line"/>
      <point x="694" y="662" type="line"/>
      <point x="694" y="700" type="line"/>
      <point x="621" y="700" type="line"/>
    </contour>
  </outline>
</glyph>
<glyph name="yusbig-cy" format="2">
  <advance width="632"/>
  <unicode hex="046B"/>
  <guideline x="316" y="295" angle="270"/>
  <outline>
    <contour>
      <point x="60" y="-10" type="curve" smooth="yes"/>
      <point x="115" y="-10"/>
      <point x="145" y="20"/>
      <point x="160" y="75" type="curve" smooth="yes"/>
      <point x="185" y="170" type="line" smooth="yes"/>
      <point x="196" y="210"/>
      <point x="220" y="230"/>
      <point x="251" y="230" type="curve"/>
      <point x="271" y="230" type="line"/>
      <point x="271" y="0" type="line"/>
      <point x="361" y="0" type="line"/>
      <point x="361" y="230" type="line"/>
      <point x="381" y="230" type="line" smooth="yes"/>
      <point x="412" y="230"/>
      <point x="436" y="210"/>
      <point x="447" y="170" type="curve" smooth="yes"/>
      <point x="472" y="75" type="line" smooth="yes"/>
      <point x="487" y="20"/>
      <point x="517" y="-10"/>
      <point x="572" y="-10" type="curve" smooth="yes"/>
      <point x="602" y="-10"/>
      <point x="627" y="0"/>
      <point x="627" y="0" type="curve"/>
      <point x="627" y="40" type="line"/>
      <point x="587" y="40"/>
      <point x="572" y="55"/>
      <point x="567" y="75" type="curve" smooth="yes"/>
      <point x="542" y="170" type="line" smooth="yes"/>
      <point x="520" y="256"/>
      <point x="472" y="295"/>
      <point x="355" y="295" type="curve" smooth="yes"/>
      <point x="277" y="295" type="line" smooth="yes"/>
      <point x="160" y="295"/>
      <point x="112" y="254"/>
      <point x="90" y="170" type="curve" smooth="yes"/>
      <point x="65" y="75" type="line" smooth="yes"/>
      <point x="60" y="55"/>
      <point x="45" y="40"/>
      <point x="5" y="40" type="curve"/>
      <point x="5" y="0" type="line"/>
      <point x="5" y="0"/>
      <point x="30" y="-10"/>
    </contour>
    <contour>
      <point x="208" y="273" type="line"/>
      <point x="307" y="273" type="line"/>
      <point x="137" y="465" type="line"/>
      <point x="123" y="435" type="line"/>
      <point x="511" y="435" type="line"/>
      <point x="498" y="465" type="line"/>
      <point x="328" y="273" type="line"/>
      <point x="424" y="273" type="line"/>
      <point x="598" y="463" type="line"/>
      <point x="598" y="500" type="line"/>
      <point x="34" y="500" type="line"/>
      <point x="34" y="463" type="line"/>
    </contour>
  </outline>
</glyph>
<glyph name="Fita-cy" format="2">
  <advance width="530"/>
  <unicode hex="0472"/>
  <outline>
    <contour>
      <point x="265" y="-10" type="curve" smooth="yes"/>
      <point x="400" y="-10"/>
      <point x="480" y="70"/>
      <point x="480" y="350" type="curve" smooth="yes"/>
      <point x="480" y="630"/>
      <point x="400" y="710"/>
      <point x="265" y="710" type="curve" smooth="yes"/>
      <point x="130" y="710"/>
      <point x="50" y="630"/>
      <point x="50" y="350" type="curve" smooth="yes"/>
      <point x="50" y="70"/>
      <point x="130" y="-10"/>
    </contour>
    <contour>
      <point x="265" y="50" type="curve" smooth="yes"/>
      <point x="200" y="50"/>
      <point x="140" y="110"/>
      <point x="140" y="350" type="curve" smooth="yes"/>
      <point x="140" y="590"/>
      <point x="200" y="650"/>
      <point x="265" y="650" type="curve" smooth="yes"/>
      <point x="330" y="650"/>
      <point x="390" y="590"/>
      <point x="390" y="350" type="curve" smooth="yes"/>
      <point x="390" y="110"/>
      <point x="330" y="50"/>
    </contour>
    <contour>
      <point x="120" y="317" type="line"/>
      <point x="290" y="317" type="line"/>
      <point x="330" y="317"/>
      <point x="380" y="327"/>
      <point x="410" y="337" type="curve"/>
      <point x="410" y="382" type="line"/>
      <point x="120" y="382" type="line"/>
    </contour>
  </outline>
</glyph>
<glyph name="Izhitsa-cy" format="2">
  <advance width="502"/>
  <unicode hex="0474"/>
  <outline>
    <contour>
      <point x="180" y="0" type="line"/>
      <point x="310" y="0" type="line"/>
      <point x="440" y="568" type="line" smooth="yes"/>
      <point x="455" y="632"/>
      <point x="490" y="655"/>
      <point x="532" y="655" type="curve"/>
      <point x="532" y="700" type="line"/>
      <point x="532" y="700"/>
      <point x="507" y="710"/>
      <point x="472" y="710" type="curve" smooth="yes"/>
      <point x="421" y="710"/>
      <point x="374" y="674"/>
      <point x="353" y="578" type="curve" smooth="yes"/>
      <point x="247" y="95" type="line"/>
      <point x="243" y="95" type="line"/>
      <point x="110" y="700" type="line"/>
      <point x="20" y="700" type="line"/>
    </contour>
  </outline>
</glyph>
<glyph name="Ghemiddlehook-cy" format="2">
  <advance width="500"/>
  <unicode hex="0494"/>
  <outline>
    <contour>
      <point x="315" y="-140" type="curve" smooth="yes"/>
      <point x="405" y="-140"/>
      <point x="455" y="-90"/>
      <point x="455" y="30" type="curve"/>
      <point x="455" y="245" type="line" smooth="yes"/>
      <point x="455" y="380"/>
      <point x="394" y="440"/>
      <point x="270" y="440" type="curve" smooth="yes"/>
      <point x="230" y="440"/>
      <point x="185" y="435"/>
      <point x="160" y="430" type="curve"/>
      <point x="160" y="370" type="line"/>
      <point x="230" y="370" type="line" smooth="yes"/>
      <point x="325" y="370"/>
      <point x="365" y="330"/>
      <point x="365" y="245" type="curve" smooth="yes"/>
      <point x="365" y="30" type="line"/>
      <point x="365" y="-50"/>
      <point x="335" y="-80"/>
      <point x="295" y="-80" type="curve" smooth="yes"/>
      <point x="245" y="-80" type="line"/>
      <point x="245" y="-120" type="line"/>
      <point x="265" y="-135"/>
      <point x="295" y="-140"/>
    </contour>
    <component base="Ge-cy"/>
  </outline>
</glyph>
<glyph name="ghemiddlehook-cy" format="2">
  <advance width="440"/>
  <unicode hex="0495"/>
  <outline>
    <contour>
      <point x="265" y="-90" type="curve" smooth="yes"/>
      <point x="350" y="-90"/>
      <point x="390" y="-50"/>
      <point x="390" y="70" type="curve"/>
      <point x="390" y="130" type="line" smooth="yes"/>
      <point x="390" y="250"/>
      <point x="330" y="280"/>
      <point x="245" y="280" type="curve" smooth="yes"/>
      <point x="200" y="280"/>
      <point x="165" y="274"/>
      <point x="135" y="265" type="curve"/>
      <point x="135" y="220" type="line"/>
      <point x="160" y="224"/>
      <point x="181" y="226"/>
      <point x="199" y="226" type="curve" smooth="yes"/>
      <point x="272" y="226"/>
      <point x="300" y="194"/>
      <point x="300" y="130" type="curve" smooth="yes"/>
      <point x="300" y="70" type="line"/>
      <point x="300" y="-10"/>
      <point x="280" y="-30"/>
      <point x="240" y="-30" type="curve" smooth="yes"/>
      <point x="200" y="-30" type="line"/>
      <point x="200" y="-70" type="line"/>
      <point x="220" y="-85"/>
      <point x="240" y="-90"/>
    </contour>
    <component base="ge-cy"/>
  </outline>
</glyph>
<glyph name="Zhedescender-cy" format="2">
  <advance width="730"/>
  <unicode hex="0496"/>
  <outline>
    <contour>
      <point x="65" y="-10" type="curve" smooth="yes"/>
      <point x="125" y="-10"/>
      <point x="165" y="30"/>
      <point x="180" y="110" type="curve" smooth="yes"/>
      <point x="205" y="240" type="line" smooth="yes"/>
      <point x="218" y="310"/>
      <point x="255" y="330"/>
      <point x="300" y="330" type="curve" smooth="yes"/>
      <point x="325" y="330" type="line"/>
      <point x="325" y="0" type="line"/>
      <point x="415" y="0" type="line"/>
      <point x="415" y="330" type="line"/>
      <point x="440" y="330" type="line" smooth="yes"/>
      <point x="485" y="330"/>
      <point x="522" y="310"/>
      <point x="535" y="240" type="curve" smooth="yes"/>
      <point x="560" y="110" type="line" smooth="yes"/>
      <point x="575" y="37"/>
      <point x="615" y="0"/>
      <point x="675" y="0" type="curve" smooth="yes"/>
      <point x="710" y="0"/>
      <point x="735" y="0"/>
      <point x="735" y="0" type="curve"/>
      <point x="735" y="70" type="line"/>
      <point x="685" y="70"/>
      <point x="660" y="87"/>
      <point x="653" y="120" type="curve" smooth="yes"/>
      <point x="630" y="240" type="line" smooth="yes"/>
      <point x="614" y="324"/>
      <point x="580" y="350"/>
      <point x="530" y="363" type="curve"/>
      <point x="530" y="367" type="line"/>
      <point x="575" y="380"/>
      <point x="599" y="407"/>
      <point x="620" y="490" type="curve" smooth="yes"/>
      <point x="645" y="590" type="line" smooth="yes"/>
      <point x="655" y="630"/>
      <point x="675" y="655"/>
      <point x="725" y="655" type="curve"/>
      <point x="725" y="700" type="line"/>
      <point x="725" y="700"/>
      <point x="700" y="710"/>
      <point x="665" y="710" type="curve" smooth="yes"/>
      <point x="610" y="710"/>
      <point x="570" y="670"/>
      <point x="550" y="590" type="curve" smooth="yes"/>
      <point x="525" y="490" type="line" smooth="yes"/>
      <point x="508" y="421"/>
      <point x="475" y="400"/>
      <point x="440" y="400" type="curve" smooth="yes"/>
      <point x="415" y="400" type="line"/>
      <point x="415" y="700" type="line"/>
      <point x="325" y="700" type="line"/>
      <point x="325" y="400" type="line"/>
      <point x="300" y="400" type="line" smooth="yes"/>
      <point x="265" y="400"/>
      <point x="232" y="421"/>
      <point x="215" y="490" type="curve" smooth="yes"/>
      <point x="190" y="590" type="line" smooth="yes"/>
      <point x="170" y="670"/>
      <point x="130" y="710"/>
      <point x="75" y="710" type="curve" smooth="yes"/>
      <point x="40" y="710"/>
      <point x="15" y="700"/>
      <point x="15" y="700" type="curve"/>
      <point x="15" y="655" type="line"/>
      <point x="65" y="655"/>
      <point x="85" y="630"/>
      <point x="95" y="590" type="curve" smooth="yes"/>
      <point x="120" y="490" type="line" smooth="yes"/>
      <point x="141" y="407"/>
      <point x="165" y="380"/>
      <point x="210" y="367" type="curve"/>
      <point x="210" y="363" type="line"/>
      <point x="160" y="350"/>
      <point x="126" y="324"/>
      <point x="110" y="240" type="curve" smooth="yes"/>
      <point x="85" y="110" type="line" smooth="yes"/>
      <point x="78" y="75"/>
      <point x="55" y="45"/>
      <point x="5" y="45" type="curve"/>
      <point x="5" y="0" type="line"/>
      <point x="5" y="0"/>
      <point x="30" y="-10"/>
    </contour>
    <contour>
      <point x="695" y="-150" type="curve"/>
      <point x="750" y="-150" type="line"/>
      <point x="750" y="70" type="line"/>
      <point x="700" y="70" type="line"/>
      <point x="665" y="5" type="line"/>
      <point x="670" y="-55"/>
      <point x="680" y="-110"/>
    </contour>
  </outline>
</glyph>
<glyph name="kabashkir-cy" format="2">
  <advance width="500"/>
  <unicode hex="04A1"/>
  <outline>
    <contour>
      <point x="20" y="435" type="line"/>
      <point x="120" y="435" type="line"/>
      <point x="210" y="500" type="line"/>
      <point x="20" y="500" type="line"/>
    </contour>
    <component base="ka-cy" xOffset="55"/>
  </outline>
</glyph>
<glyph name="Esdescender-cy" format="2">
  <advance width="435"/>
  <unicode hex="04AA"/>
  <outline>
    <contour>
      <point x="260" y="-145" type="curve"/>
      <point x="315" y="-145" type="line"/>
      <point x="315" y="35" type="line"/>
      <point x="230" y="0" type="line"/>
      <point x="235" y="-50"/>
      <point x="245" y="-105"/>
    </contour>
    <component base="Es-cy"/>
  </outline>
</glyph>
<glyph name="quoteleft" format="2">
  <advance width="170"/>
  <unicode hex="2018"/>
  <outline>
    <contour>
      <point x="40" y="480" type="line"/>
      <point x="135" y="480" type="line"/>
      <point x="135" y="700" type="line"/>
      <point x="70" y="700" type="line"/>
    </contour>
  </outline>
</glyph>
<glyph name="perthousand" format="2">
  <advance width="990"/>
  <unicode hex="2030"/>
  <outline>
    <contour>
      <point x="100" y="0" type="line"/>
      <point x="190" y="0" type="line"/>
      <point x="580" y="700" type="line"/>
      <point x="490" y="700" type="line"/>
    </contour>
    <contour>
      <point x="510" y="-10" type="curve" smooth="yes"/>
      <point x="600" y="-10"/>
      <point x="650" y="40"/>
      <point x="650" y="140" type="curve" smooth="yes"/>
      <point x="650" y="240"/>
      <point x="600" y="290"/>
      <point x="510" y="290" type="curve" smooth="yes"/>
      <point x="420" y="290"/>
      <point x="370" y="240"/>
      <point x="370" y="140" type="curve" smooth="yes"/>
      <point x="370" y="40"/>
      <point x="420" y="-10"/>
    </contour>
    <contour>
      <point x="510" y="50" type="curve" smooth="yes"/>
      <point x="470" y="50"/>
      <point x="445" y="75"/>
      <point x="445" y="140" type="curve" smooth="yes"/>
      <point x="445" y="205"/>
      <point x="470" y="230"/>
      <point x="510" y="230" type="curve" smooth="yes"/>
      <point x="550" y="230"/>
      <point x="575" y="205"/>
      <point x="575" y="140" type="curve" smooth="yes"/>
      <point x="575" y="75"/>
      <point x="550" y="50"/>
    </contour>
    <contour>
      <point x="170" y="410" type="curve" smooth="yes"/>
      <point x="260" y="410"/>
      <point x="310" y="460"/>
      <point x="310" y="560" type="curve" smooth="yes"/>
      <point x="310" y="660"/>
      <point x="260" y="710"/>
      <point x="170" y="710" type="curve" smooth="yes"/>
      <point x="80" y="710"/>
      <point x="30" y="660"/>
      <point x="30" y="560" type="curve" smooth="yes"/>
      <point x="30" y="460"/>
      <point x="80" y="410"/>
    </contour>
    <contour>
      <point x="170" y="470" type="curve" smooth="yes"/>
      <point x="130" y="470"/>
      <point x="105" y="495"/>
      <point x="105" y="560" type="curve" smooth="yes"/>
      <point x="105" y="625"/>
      <point x="130" y="650"/>
      <point x="170" y="650" type="curve" smooth="yes"/>
      <point x="210" y="650"/>
      <point x="235" y="625"/>
      <point x="235" y="560" type="curve" smooth="yes"/>
      <point x="235" y="495"/>
      <point x="210" y="470"/>
    </contour>
    <contour>
      <point x="820" y="-10" type="curve" smooth="yes"/>
      <point x="910" y="-10"/>
      <point x="960" y="40"/>
      <point x="960" y="140" type="curve" smooth="yes"/>
      <point x="960" y="240"/>
      <point x="910" y="290"/>
      <point x="820" y="290" type="curve" smooth="yes"/>
      <point x="730" y="290"/>
      <point x="680" y="240"/>
      <point x="680" y="140" type="curve" smooth="yes"/>
      <point x="680" y="40"/>
      <point x="730" y="-10"/>
    </contour>
    <contour>
      <point x="820" y="50" type="curve" smooth="yes"/>
      <point x="780" y="50"/>
      <point x="755" y="75"/>
      <point x="755" y="140" type="curve" smooth="yes"/>
      <point x="755" y="205"/>
      <point x="780" y="230"/>
      <point x="820" y="230" type="curve" smooth="yes"/>
      <point x="860" y="230"/>
      <point x="885" y="205"/>
      <point x="885" y="140" type="curve" smooth="yes"/>
      <point x="885" y="75"/>
      <point x="860" y="50"/>
    </contour>
  </outline>
</glyph>
<glyph name="foursuperior" format="2">
  <advance width="310"/>
  <unicode hex="2074"/>
  <outline>
    <contour>
      <point x="175" y="400" type="line"/>
      <point x="240" y="400" type="line"/>
      <point x="240" y="465" type="line"/>
      <point x="270" y="465" type="line"/>
      <point x="270" y="515" type="line"/>
      <point x="240" y="515" type="line"/>
      <point x="240" y="700" type="line"/>
      <point x="170" y="700" type="line"/>
      <point x="30" y="515" type="line"/>
      <point x="30" y="465" type="line"/>
      <point x="175" y="465" type="line"/>
    </contour>
    <contour>
      <point x="100" y="515" type="line"/>
      <point x="175" y="613" type="line"/>
      <point x="175" y="515" type="line"/>
    </contour>
  </outline>
</glyph>
<glyph name="tugrik" format="2">
  <advance width="430"/>
  <unicode hex="20AE"/>
  <outline>
    <contour>
      <point x="170" y="0" type="line"/>
      <point x="260" y="0" type="line"/>
      <point x="260" y="630" type="line"/>
      <point x="420" y="630" type="line"/>
      <point x="420" y="700" type="line"/>
      <point x="10" y="700" type="line"/>
      <point x="10" y="630" type="line"/>
      <point x="170" y="630" type="line"/>
    </contour>
    <contour>
      <point x="48" y="152" type="line"/>
      <point x="382" y="292" type="line"/>
      <point x="382" y="361" type="line"/>
      <point x="48" y="221" type="line"/>
    </contour>
    <contour>
      <point x="48" y="279" type="line"/>
      <point x="382" y="419" type="line"/>
      <point x="382" y="488" type="line"/>
      <point x="48" y="348" type="line"/>
    </contour>
  </outline>
</glyph>
<glyph name="hryvnia" format="2">
  <advance width="481"/>
  <unicode hex="20B4"/>
  <guideline x="30" y="412" angle="73.4127"/>
  <guideline x="456" y="329" angle="253.4127"/>
  <outline>
    <contour>
      <point x="271" y="-10" type="curve" smooth="yes"/>
      <point x="331" y="-10"/>
      <point x="391" y="0"/>
      <point x="421" y="10" type="curve"/>
      <point x="421" y="55" type="line"/>
      <point x="291" y="55" type="line" smooth="yes"/>
      <point x="176" y="55"/>
      <point x="136" y="92"/>
      <point x="136" y="170" type="curve" smooth="yes"/>
      <point x="136" y="256"/>
      <point x="211" y="291"/>
      <point x="292" y="329" type="curve"/>
      <point x="158" y="329" type="line"/>
      <point x="95" y="293"/>
      <point x="46" y="245"/>
      <point x="46" y="160" type="curve" smooth="yes"/>
      <point x="46" y="50"/>
      <point x="106" y="-10"/>
    </contour>
    <contour>
      <point x="-5" y="293" type="line"/>
      <point x="446" y="293" type="line"/>
      <point x="463" y="350" type="line"/>
      <point x="12" y="350" type="line"/>
    </contour>
    <contour>
      <point x="23" y="390" type="line"/>
      <point x="474" y="390" type="line"/>
      <point x="491" y="447" type="line"/>
      <point x="40" y="447" type="line"/>
    </contour>
    <contour>
      <point x="238" y="412" type="curve"/>
      <point x="349" y="412" type="line"/>
      <point x="392" y="445"/>
      <point x="421" y="489"/>
      <point x="421" y="550" type="curve" smooth="yes"/>
      <point x="421" y="650"/>
      <point x="361" y="710"/>
      <point x="231" y="710" type="curve" smooth="yes"/>
      <point x="171" y="710"/>
      <point x="111" y="700"/>
      <point x="81" y="690" type="curve"/>
      <point x="81" y="645" type="line"/>
      <point x="211" y="645" type="line" smooth="yes"/>
      <point x="291" y="645"/>
      <point x="331" y="608"/>
      <point x="331" y="540" type="curve" smooth="yes"/>
      <point x="331" y="479"/>
      <point x="293" y="441"/>
    </contour>
  </outline>
</glyph>
<glyph name="ruble" format="2">
  <advance width="540"/>
  <unicode hex="20BD"/>
  <guideline x="210" y="378" angle="90"/>
  <outline>
    <contour>
      <point x="120" y="0" type="line"/>
      <point x="210" y="0" type="line"/>
      <point x="210" y="295" type="line"/>
      <point x="235" y="290"/>
      <point x="280" y="285"/>
      <point x="310" y="285" type="curve" smooth="yes"/>
      <point x="440" y="285"/>
      <point x="500" y="336"/>
      <point x="500" y="500" type="curve" smooth="yes"/>
      <point x="500" y="660"/>
      <point x="440" y="710"/>
      <point x="280" y="710" type="curve" smooth="yes"/>
      <point x="220" y="710"/>
      <point x="170" y="705"/>
      <point x="120" y="690" type="curve"/>
    </contour>
    <contour>
      <point x="30" y="161" type="line"/>
      <point x="360" y="161" type="line"/>
      <point x="360" y="226" type="line"/>
      <point x="30" y="226" type="line"/>
    </contour>
    <contour>
      <point x="30" y="289" type="line"/>
      <point x="210" y="289" type="line"/>
      <point x="210" y="354" type="line"/>
      <point x="30" y="354" type="line"/>
    </contour>
    <contour>
      <point x="210" y="355" type="line"/>
      <point x="210" y="645" type="line"/>
      <point x="280" y="645" type="line" smooth="yes"/>
      <point x="370" y="645"/>
      <point x="410" y="614"/>
      <point x="410" y="500" type="curve" smooth="yes"/>
      <point x="410" y="386"/>
      <point x="370" y="355"/>
      <point x="280" y="355" type="curve" smooth="yes"/>
    </contour>
  </outline>
</glyph>
<glyph name="trademark" format="2">
  <advance width="665"/>
  <unicode hex="2122"/>
  <outline>
    <contour>
      <point x="275" y="400" type="line"/>
      <point x="339" y="400" type="line"/>
      <point x="353" y="605" type="line"/>
      <point x="425" y="445" type="line"/>
      <point x="485" y="445" type="line"/>
      <point x="557" y="605" type="line"/>
      <point x="571" y="400" type="line"/>
      <point x="635" y="400" type="line"/>
      <point x="615" y="700" type="line"/>
      <point x="538" y="700" type="line"/>
      <point x="455" y="515" type="line"/>
      <point x="372" y="700" type="line"/>
      <point x="295" y="700" type="line"/>
    </contour>
    <contour>
      <point x="100" y="400" type="line"/>
      <point x="165" y="400" type="line"/>
      <point x="165" y="650" type="line"/>
      <point x="255" y="650" type="line"/>
      <point x="255" y="700" type="line"/>
      <point x="10" y="700" type="line"/>
      <point x="10" y="650" type="line"/>
      <point x="100" y="650" type="line"/>
    </contour>
  </outline>
</glyph>
<glyph name="verticalbar-cy.case" format="2">
  <advance width="444"/>
  <anchor x="222" y="310" name="_center"/>
  <outline>
    <contour>
      <point x="200" y="165" type="line"/>
      <point x="244" y="165" type="line"/>
      <point x="244" y="455" type="line"/>
      <point x="200" y="455" type="line"/>
    </contour>
  </outline>
</glyph>
